<?xml version="1.0" encoding="utf-8"?>
<!-- Generator: Adobe Illustrator 23.0.2, SVG Export Plug-In . SVG Version: 6.00 Build 0)  -->
<svg version="1.1" id="Layer_1" xmlns="http://www.w3.org/2000/svg" xmlns:xlink="http://www.w3.org/1999/xlink" x="0px" y="0px"
	 viewBox="0 0 1920 1080" style="enable-background:new 0 0 1920 1080;" xml:space="preserve">
<style type="text/css">
	.st0{fill:#1800FC;}
</style>
<path class="st0" d="M864,577v25c0,0,45,9,69-25s54-75,68-75v17l54-30l-55-31v18c0,0-33,5-60,50S895,577,864,577z"/>
<path class="st0" d="M864,500v-24c0,0,49-12,78,36l-15.5,20.5c0,0-22.5-26.5-38-32S864,500,864,500z"/>
<path class="st0" d="M950,566l17-20c0,0,22,29,33,29v-17l55,31l-55,32v-17.5C1000,603.5,967.5,589.5,950,566z"/>
</svg>
